<?xml version="1.0" standalone="no"?>
<!DOCTYPE svg PUBLIC "-//W3C//DTD SVG 20010904//EN"
 "http://www.w3.org/TR/2001/REC-SVG-20010904/DTD/svg10.dtd">
<svg version="1.0" xmlns="http://www.w3.org/2000/svg"
 width="700.000000pt" height="700.000000pt" viewBox="0 0 700.000000 700.000000"
 preserveAspectRatio="xMidYMid meet">
<metadata>
Created by potrace 1.11, written by Peter Selinger 2001-2013
</metadata>
<g transform="translate(0.000000,700.000000) scale(0.100000,-0.100000)"
fill="#000000" stroke="none">
<path d="M1452 6452 c-6 -2 -32 -30 -57 -62 -25 -33 -51 -65 -58 -72 -7 -7
-28 -33 -47 -58 -19 -25 -37 -47 -40 -50 -3 -3 -39 -48 -80 -100 -41 -52 -80
-102 -87 -110 -7 -8 -54 -67 -105 -131 -51 -63 -106 -132 -123 -153 -34 -44
-195 -244 -242 -302 -74 -92 -561 -702 -585 -734 l-27 -35 82 -96 c45 -53 103
-120 128 -150 26 -30 79 -92 119 -139 40 -47 82 -96 94 -110 11 -14 44 -52 72
-85 28 -33 163 -190 299 -350 136 -159 257 -301 269 -315 11 -14 46 -55 76
-90 30 -36 57 -67 60 -70 3 -3 68 -79 145 -170 162 -191 160 -189 251 -295 84
-97 83 -96 231 -270 65 -77 198 -232 294 -345 96 -113 253 -297 349 -410 96
-113 177 -207 180 -210 3 -3 41 -48 85 -100 44 -52 92 -108 106 -125 15 -16
111 -129 214 -250 103 -121 197 -231 209 -245 11 -14 68 -80 126 -147 57 -68
107 -123 111 -123 4 0 24 21 45 48 21 26 41 49 44 52 3 3 71 82 150 175 80 94
157 184 171 200 35 39 153 178 204 240 22 26 47 55 55 64 9 9 40 45 70 81 30
35 65 76 76 90 12 14 93 108 179 210 86 102 169 199 184 215 14 17 66 77 115
135 49 58 110 130 136 160 26 30 118 138 205 240 87 102 169 199 184 215 14
17 76 89 136 160 107 127 150 176 170 199 6 6 46 54 90 106 44 52 85 100 90
106 6 6 28 32 50 59 22 26 45 53 50 59 6 6 76 88 155 181 79 94 147 172 150
175 3 3 43 50 90 105 47 55 87 102 90 105 3 3 25 30 50 60 25 30 50 60 56 65
6 6 60 69 120 140 60 72 119 141 130 155 187 216 252 296 247 304 -8 12 -1398
1750 -1425 1781 l-19 22 -2042 0 c-1123 0 -2048 -2 -2055 -5z"/>
</g>
</svg>
